<?xml version="1.0" encoding="UTF-8" standalone="no"?><!DOCTYPE svg PUBLIC "-//W3C//DTD SVG 1.1//EN"
        "http://www.w3.org/Graphics/SVG/1.1/DTD/svg11.dtd">
<svg width="100%" height="100%" viewBox="0 0 696 854" version="1.1" xmlns="http://www.w3.org/2000/svg"
     xml:space="preserve"
     style="fill-rule:evenodd;clip-rule:evenodd;"><path d="M695.33,116.812c0,-30.98 -12.307,-60.692 -34.213,-82.599c-21.907,-21.906 -51.619,-34.213 -82.599,-34.213c-128.366,0 -333.34,0 -461.706,0c-30.98,-0 -60.692,12.307 -82.599,34.213c-21.906,21.907 -34.213,51.619 -34.213,82.599c-0,162.881 -0,456.51 -0,619.39c0,30.981 12.307,60.693 34.213,82.599c21.907,21.907 51.619,34.214 82.599,34.214c128.366,-0 333.34,-0 461.706,-0c30.98,-0 60.692,-12.307 82.599,-34.214c21.906,-21.906 34.213,-51.618 34.213,-82.599c0,-162.88 0,-456.509 0,-619.39Z" style="fill:#fff;"/>
    <g><path d="M152.259,811.536c-2.718,-77.578 8.325,-148.505 1.597,-216.663m-1.45,208.017c2.518,-76.137 0.81,-161.999 6.315,-208.19m-8.301,3.586c119.306,-10.351 241.01,6.199 311.076,0.114m-302.256,-3.915c89.275,1.585 178.738,-2.77 305.671,0.673m-7.597,-2.182c4.102,82.622 -2.772,148.781 2.478,225.41m-1.114,-220.215c6.051,83.371 2.383,161.378 -4.242,216.233m7.814,4.461c-83.582,-8.536 -155.478,-3.851 -311.296,-3.926m304.715,-6.48c-99.78,-3.19 -205.322,1.43 -303.82,-0.304" style="fill:none;fill-rule:nonzero;stroke:#000;stroke-width:4.17px;"/></g>
    <g><path d="M188.303,137.783c27.429,-27.42 56.033,-47.161 110.031,-94.775m-116.399,89.565c32.514,-22.3 65.259,-50.585 117.771,-93.345m-4.492,-0.304c47.296,43.146 70.642,66.349 115.162,104.743m-109.569,-102.851c30.133,34.11 65.705,57.416 104.058,95.737m-5.961,7.771c-26.398,24.434 -63.844,45.373 -97.208,94.074m104.815,-102.335c-36.13,37.084 -78.24,78.996 -112.106,97.743m1.891,6.602c-30.243,-32.588 -83.185,-71.834 -106.621,-111.445m104.94,111.469c-32.998,-35.891 -72.967,-67.648 -112.061,-107.143" style="fill:none;fill-rule:nonzero;stroke:#000;stroke-width:4.17px;"/></g>
    <g><g><path d="M291.441,585.906c-2.199,-31.737 26.71,-178.281 -14.665,-184.757c-41.374,-6.476 -215.388,185.076 -233.585,145.9c-18.197,-39.177 102.698,-317.826 124.404,-380.958m118.623,423.601c-3.437,-33.51 22.857,-191.685 -17.131,-198.423c-39.989,-6.737 -206.451,195.807 -222.801,157.996c-16.35,-37.811 102.946,-322.452 124.699,-384.861" style="fill:none;fill-rule:nonzero;stroke:#000;stroke-width:4.17px;"/></g></g>
    <g><g><path d="M432.186,145.693c-9.25,30.665 -85.293,160.498 -48.38,180.864c36.913,20.366 266.341,-102.178 269.857,-58.669c3.517,43.509 -207.512,267.17 -248.759,319.722m31.064,-445.968c-8.832,32.841 -85.338,175.843 -49.607,195.897c35.732,20.055 261.664,-117.39 263.996,-75.571c2.331,41.819 -208.637,271.754 -250.007,326.484" style="fill:none;fill-rule:nonzero;stroke:#000;stroke-width:4.17px;"/></g></g></svg>
